<svg width="1024" height="1024" viewBox="0 0 1024 1024" fill="none" xmlns="http://www.w3.org/2000/svg">
<rect width="1024" height="1024" fill="white"/>
<rect width="363.89" height="524.738" rx="27" transform="matrix(0.857349 -0.514735 0.515341 0.856985 64 381.307)" fill="#BFC0C2"/>
<path d="M76.5152 379.28C206.302 376.221 350.397 383.7 501.625 402.938L632.486 620.554C640.17 633.333 636.036 649.915 623.252 657.59L357.568 817.102C344.783 824.778 328.189 820.64 320.504 807.861L77.9146 404.446C73.1419 396.509 72.9291 387.106 76.5152 379.28Z" fill="#AAAAAA"/>
<rect x="-4.1041" y="-16.4606" width="387.89" height="548.738" rx="39" transform="matrix(0.857349 0.514735 -0.515341 0.856985 638.951 193.758)" fill="url(#paint0_linear_4_74)" stroke="white" stroke-width="24"/>
<path d="M944.308 374.026C950.917 382.569 951.989 394.629 946.086 404.446L703.495 807.862C695.81 820.641 679.217 824.778 666.432 817.102L400.749 657.59C396.651 655.13 393.444 651.754 391.228 647.882C458.361 570.08 587.31 487.77 746.045 429.145C814.626 403.817 881.861 385.46 944.308 374.026Z" fill="url(#paint1_linear_4_74)"/>
<path d="M412.16 524.615L344.53 566.337L323.84 653.686L252.8 695.359L250.88 692.161L319.111 650.633L340.039 563.102L340.175 563.017L416.64 516.302L412.16 524.615ZM430.72 492.641L329.17 553.548L308.48 640.896L243.84 680.011L241.28 676.174L303.752 637.843L324.678 550.312L324.815 550.227L436.48 483.688L430.72 492.641ZM412.16 462.585C419.229 462.585 424.96 468.311 424.96 475.375L424.956 475.705C424.78 482.616 419.119 488.164 412.16 488.164C409.35 488.164 406.752 487.258 404.64 485.724L313.81 542.142L293.12 629.492L234.343 665.302L231.68 660.932L288.391 626.439L308.996 540.259L309.319 538.908L309.455 538.823L401.138 481.877C400.062 480.06 399.421 477.955 399.364 475.705L399.36 475.375C399.36 468.311 405.091 462.585 412.16 462.585ZM270.08 589.204C277.149 589.204 282.88 594.93 282.88 601.994L282.876 602.324C282.7 609.235 277.038 614.783 270.08 614.783C266.762 614.783 263.741 613.519 261.467 611.45L217.992 637.599L215.927 634.174L258.942 608.3C257.935 606.529 257.339 604.494 257.284 602.324L257.28 601.994C257.28 594.93 263.011 589.204 270.08 589.204ZM270.08 593.204C265.217 593.204 261.28 597.142 261.28 601.994C261.28 606.845 265.217 610.783 270.08 610.783C274.943 610.783 278.879 606.845 278.88 601.994C278.88 597.142 274.943 593.204 270.08 593.204ZM480.779 367.533L450.889 385.451L438.426 437.47L437.504 437.25L190.291 592.59L188.16 589.204L435.14 434.009L447.131 383.974L446.719 383.289L478.72 364.104L480.779 367.533ZM217.599 495.839C224.669 495.839 230.399 501.565 230.399 508.629L230.395 508.959C230.22 515.87 224.558 521.418 217.599 521.418C213.433 521.417 209.733 519.427 207.395 516.347L162.088 544.014L160.001 540.602L205.505 512.816C205.084 511.603 204.838 510.307 204.803 508.959L204.8 508.629C204.8 501.565 210.53 495.839 217.599 495.839ZM391.679 420.379C398.749 420.379 404.479 426.105 404.479 433.169L404.475 433.499C404.328 439.298 400.317 444.136 394.919 445.543L394.928 445.565L379.971 451.791L299.611 502.093L215.971 482.135L149.965 524.444L147.2 520.139L215.04 476.654L298.88 496.659L377.6 447.237L378.88 431.889L378.942 431.894C379.582 425.429 385.041 420.379 391.679 420.379ZM217.599 499.839C212.737 499.839 208.8 503.777 208.8 508.629C208.8 513.48 212.737 517.417 217.599 517.418C222.462 517.418 226.399 513.48 226.399 508.629C226.399 503.777 222.462 499.839 217.599 499.839ZM408.32 362.825C415.389 362.825 421.12 368.551 421.12 375.615L421.116 375.945C420.941 382.856 415.279 388.404 408.32 388.404C404.65 388.404 401.342 386.859 399.008 384.386L362.321 407.298C363.089 408.94 363.519 410.772 363.519 412.705L363.515 413.035C363.413 417.085 361.424 420.666 358.396 422.937H358.4V444.04L300.8 481.769L215.953 461.667L140.978 509.114L138.24 504.792L215.04 456.19L299.86 476.429L353.28 441.249V425.238C352.453 425.406 351.596 425.494 350.719 425.494C343.761 425.494 338.099 419.946 337.924 413.035L337.92 412.705C337.92 405.642 343.651 399.915 350.719 399.915C354.414 399.915 357.741 401.482 360.077 403.983L396.749 381.082C396.007 379.517 395.571 377.78 395.524 375.945L395.52 375.615C395.52 368.551 401.251 362.825 408.32 362.825ZM412.16 466.585C407.297 466.585 403.36 470.523 403.36 475.375C403.36 480.226 407.297 484.164 412.16 484.164C417.023 484.164 420.96 480.226 420.96 475.375C420.96 470.523 417.023 466.585 412.16 466.585ZM489.07 382.539L468.206 395.279L456.96 449.796L449.92 461.946L463.615 392.086L486.4 378.173L489.07 382.539ZM382.923 445.02L385.075 444.124C384.376 443.702 383.721 443.216 383.118 442.674L382.923 445.02ZM391.679 424.379C387.136 424.379 383.401 427.818 382.93 432.226L383.982 432.314L383.617 436.69C384.823 439.44 387.396 441.454 390.48 441.874L392.96 440.842L393.357 441.796C397.417 441.013 400.479 437.447 400.479 433.169C400.479 428.317 396.542 424.379 391.679 424.379ZM350.719 403.915C345.857 403.915 341.92 407.854 341.92 412.705C341.92 417.556 345.857 421.494 350.719 421.494C355.583 421.494 359.519 417.556 359.519 412.705C359.519 407.854 355.582 403.915 350.719 403.915ZM408.32 366.825C403.457 366.825 399.52 370.764 399.52 375.615C399.52 380.466 403.457 384.404 408.32 384.404C413.183 384.404 417.12 380.466 417.12 375.615C417.12 370.764 413.183 366.825 408.32 366.825Z" fill="#787E7C"/>
<defs>
<linearGradient id="paint0_linear_4_74" x1="181.945" y1="0" x2="181.945" y2="524.738" gradientUnits="userSpaceOnUse">
<stop stop-color="#E98142"/>
<stop offset="1" stop-color="#95453E"/>
</linearGradient>
<linearGradient id="paint1_linear_4_74" x1="943.554" y1="373.848" x2="671.44" y2="821.476" gradientUnits="userSpaceOnUse">
<stop stop-color="#D06133"/>
<stop offset="1" stop-color="#5A0B11"/>
</linearGradient>
</defs>
</svg>
