<svg width="1024" height="1024" viewBox="0 0 1024 1024" fill="none" xmlns="http://www.w3.org/2000/svg">
<rect width="1024" height="1024" fill="white"/>
<rect width="363.89" height="524.738" rx="27" transform="matrix(0.857349 -0.514735 0.515341 0.856985 68 381.307)" fill="url(#paint0_linear_4_74)"/>
<path d="M80.5147 379.28C210.302 376.221 354.396 383.699 505.624 402.938L636.486 620.554C644.171 633.333 640.036 649.914 627.252 657.59L361.567 817.102C348.783 824.777 332.19 820.64 324.505 807.861L81.9141 404.445C77.1416 396.509 76.9289 387.106 80.5147 379.28Z" fill="url(#paint1_linear_4_74)"/>
<path d="M221.6 497.838C227.566 497.838 232.4 502.671 232.4 508.628C232.399 514.586 227.566 519.418 221.6 519.418C215.634 519.417 210.8 514.586 210.8 508.628C210.8 502.671 215.634 497.839 221.6 497.838Z" stroke="#767676" stroke-width="4"/>
<path d="M274.08 591.204C280.046 591.204 284.88 596.036 284.88 601.994C284.879 607.951 280.046 612.783 274.08 612.783C268.114 612.783 263.28 607.951 263.28 601.994C263.28 596.036 268.114 591.204 274.08 591.204Z" stroke="#767676" stroke-width="4"/>
<path d="M416.16 464.585C422.126 464.585 426.96 469.418 426.96 475.375C426.959 481.332 422.126 486.164 416.16 486.164C410.194 486.164 405.36 481.332 405.36 475.375C405.36 469.418 410.194 464.585 416.16 464.585Z" stroke="#767676" stroke-width="4"/>
<path d="M395.68 422.379C401.646 422.379 406.48 427.211 406.48 433.169C406.479 439.126 401.646 443.958 395.68 443.958C389.714 443.958 384.88 439.126 384.88 433.169C384.88 427.211 389.714 422.379 395.68 422.379Z" stroke="#767676" stroke-width="4"/>
<path d="M412.32 364.825C418.286 364.825 423.12 369.657 423.12 375.615C423.119 381.572 418.286 386.404 412.32 386.404C406.354 386.404 401.52 381.572 401.52 375.615C401.52 369.657 406.354 364.825 412.32 364.825Z" stroke="#767676" stroke-width="4"/>
<path d="M354.72 401.915C360.686 401.915 365.52 406.748 365.52 412.705C365.519 418.663 360.686 423.494 354.72 423.494C348.754 423.494 343.92 418.663 343.92 412.705C343.92 406.748 348.754 401.915 354.72 401.915Z" stroke="#767676" stroke-width="4"/>
<line y1="-2.5" x2="53.9915" y2="-2.5" transform="matrix(-0.853467 0.521146 -0.521754 -0.853096 210.08 512.465)" stroke="#767676" stroke-width="5"/>
<line y1="-2.5" x2="48.2911" y2="-2.5" transform="matrix(-0.848189 0.529694 -0.530304 -0.847808 403.36 379.452)" stroke="#767676" stroke-width="5"/>
<path d="M493.07 382.539L472.206 395.279L460.96 449.795L453.92 461.946L467.615 392.086L490.4 378.173L493.07 382.539Z" fill="#767676"/>
<path d="M409.902 484.942L317.81 542.143L297.12 629.491L238.342 665.303L235.68 660.933L292.391 626.439L312.996 540.259L313.319 538.908L313.455 538.823L407.2 480.597L409.902 484.942Z" fill="#767676"/>
<path d="M348.53 566.337L416.16 524.615L420.64 516.302L344.175 563.017L344.039 563.102L323.111 650.633L254.88 692.161L256.8 695.359L327.84 653.686L348.53 566.337Z" fill="#767676"/>
<path d="M434.72 492.641L333.17 553.547L312.48 640.896L247.84 680.011L245.28 676.174L307.751 637.843L328.679 550.312L328.815 550.227L440.48 483.688L434.72 492.641Z" fill="#767676"/>
<path d="M362.4 443.4V444.04L304.8 481.77L219.952 461.667L144.979 509.114L142.24 504.791L219.04 456.19L303.86 476.429L357.28 441.248V422.937H362.4V443.4Z" fill="#767676"/>
<path d="M302.88 496.659L303.611 502.093L219.971 482.136L153.965 524.444L151.2 520.139L219.04 476.654L302.88 496.659Z" fill="#767676"/>
<path d="M388 443L394 445.5L303.611 502.093L302.88 496.659L388 443Z" fill="#767676"/>
<path d="M265.157 609.303L220.96 635.886" stroke="#767676" stroke-width="5"/>
<path d="M485.292 368.392L455.788 386.079L445.5 436L443.142 437.401L194.822 593.437L192.161 589.203L440.482 433.168L441.5 432.5L451.34 382.916L482.721 364.103L485.292 368.392Z" fill="#767676"/>
<rect x="-4.1041" y="-16.4606" width="387.89" height="548.738" rx="39" transform="matrix(0.857349 0.514735 -0.515341 0.856985 634.351 193.758)" fill="url(#paint2_linear_4_74)" stroke="white" stroke-width="24"/>
<path d="M939.708 374.026C946.317 382.569 947.389 394.629 941.486 404.446L698.895 807.862C691.21 820.641 674.617 824.778 661.832 817.102L396.149 657.59C392.051 655.13 388.844 651.754 386.628 647.882C453.761 570.08 582.71 487.77 741.445 429.145C810.026 403.817 877.261 385.46 939.708 374.026Z" fill="url(#paint3_linear_4_74)"/>
<defs>
<linearGradient id="paint0_linear_4_74" x1="181.945" y1="0" x2="181.945" y2="524.738" gradientUnits="userSpaceOnUse">
<stop stop-color="#E4E4E4"/>
<stop offset="1" stop-color="#717171"/>
</linearGradient>
<linearGradient id="paint1_linear_4_74" x1="359.201" y1="378.618" x2="359.201" y2="820.959" gradientUnits="userSpaceOnUse">
<stop stop-color="#D4D4D4"/>
<stop offset="0.5" stop-color="#ADADAD"/>
<stop offset="1" stop-color="#555555"/>
</linearGradient>
<linearGradient id="paint2_linear_4_74" x1="181.945" y1="0" x2="181.945" y2="524.738" gradientUnits="userSpaceOnUse">
<stop stop-color="#74BCF9"/>
<stop offset="0.600962" stop-color="#9157E9"/>
</linearGradient>
<linearGradient id="paint3_linear_4_74" x1="938.954" y1="373.848" x2="666.84" y2="821.476" gradientUnits="userSpaceOnUse">
<stop stop-color="#9157E9"/>
<stop offset="1" stop-color="#372A63"/>
</linearGradient>
</defs>
</svg>
